<svg width="64" height="64" viewBox="0 0 64 64" fill="none" xmlns="http://www.w3.org/2000/svg">
  <rect width="64" height="64" rx="8" fill="white"/>
  <path d="M24.5 11C22.8431 11 21.5 12.3431 21.5 14V50C21.5 51.6569 22.8431 53 24.5 53H39.5C41.1569 53 42.5 51.6569 42.5 50V14C42.5 12.3431 41.1569 11 39.5 11H37.9047C37.7719 11.5145 37.5035 11.9892 37.1213 12.3713C36.5587 12.9339 35.7956 13.25 35 13.25H29C28.2044 13.25 27.4413 12.9339 26.8787 12.3713C26.4965 11.9892 26.2281 11.5145 26.0953 11H24.5ZM24.5 8H39.5C42.8137 8 45.5 10.6863 45.5 14V50C45.5 53.3137 42.8137 56 39.5 56H24.5C21.1863 56 18.5 53.3137 18.5 50V14C18.5 10.6863 21.1863 8 24.5 8Z" fill="black"/>
  <path d="M23.8182 43.7954V40.25L32.1023 32.5795C32.8069 31.8977 33.3978 31.2841 33.875 30.7386C34.3599 30.1932 34.7273 29.6591 34.9773 29.1363C35.2273 28.606 35.3523 28.0341 35.3523 27.4204C35.3523 26.7386 35.197 26.1515 34.8864 25.6591C34.5758 25.1591 34.1515 24.7765 33.6137 24.5113C33.0758 24.2386 32.4659 24.1023 31.7841 24.1023C31.072 24.1023 30.4508 24.2462 29.9205 24.5341C29.3902 24.822 28.9811 25.2348 28.6932 25.7727C28.4053 26.3106 28.2614 26.9507 28.2614 27.6932H23.5909C23.5909 26.1704 23.9356 24.8485 24.625 23.7273C25.3144 22.606 26.2803 21.7386 27.5228 21.125C28.7652 20.5113 30.197 20.2045 31.8182 20.2045C33.4849 20.2045 34.9356 20.5 36.1705 21.0909C37.4129 21.6742 38.3788 22.4848 39.0682 23.5227C39.7576 24.5606 40.1023 25.75 40.1023 27.0909C40.1023 27.9697 39.9281 28.8371 39.5796 29.6932C39.2387 30.5492 38.6288 31.5 37.75 32.5454C36.8712 33.5833 35.6326 34.8295 34.0341 36.2841L30.6364 39.6136V39.7727H40.4091V43.7954H23.8182Z" fill="#DC322F"/>
</svg>
