<svg width="64" height="64" viewBox="0 0 64 64" fill="none" xmlns="http://www.w3.org/2000/svg">
  <g>
    <rect width="64" height="64" rx="8" fill="white"/>
    <path d="M11.304 46.904L7.72 44.44L13.152 35.648L4.584 31.84L5.872 27.864L14.944 30.272L15.616 20.304H19.984L20.656 30.272L29.728 27.864L31.016 31.84L22.448 35.648L27.88 44.44L24.296 46.904L17.8 38.952L11.304 46.904Z" fill="#4B5563"/>
    <path d="M32.2261 52V47.296C34.7648 45.168 37.0795 43.1893 39.1701 41.36C41.2608 39.4933 43.0528 37.7573 44.5461 36.152C46.0395 34.5467 47.1968 33.0347 48.0181 31.616C48.8395 30.1973 49.2501 28.8533 49.2501 27.584C49.2501 25.8293 48.7461 24.504 47.7381 23.608C46.7301 22.6747 45.2928 22.208 43.4261 22.208C42.0075 22.208 40.7008 22.5813 39.5061 23.328C38.3488 24.0373 37.2661 24.8773 36.2581 25.848L31.8341 21.424C32.7675 20.4907 33.6821 19.6693 34.5781 18.96C35.5115 18.2507 36.4821 17.672 37.4901 17.224C38.5355 16.7387 39.6181 16.384 40.7381 16.16C41.8955 15.8987 43.1648 15.768 44.5461 15.768C46.4128 15.768 48.1115 16.048 49.6421 16.608C51.1728 17.1307 52.4795 17.896 53.5621 18.904C54.6821 19.8747 55.5408 21.0507 56.1381 22.432C56.7728 23.8133 57.0901 25.3627 57.0901 27.08C57.0901 28.5733 56.7355 30.104 56.0261 31.672C55.3168 33.2027 54.3461 34.752 53.1141 36.32C51.9195 37.8507 50.5381 39.4 48.9701 40.968C47.4021 42.4987 45.7595 44.0107 44.0421 45.504C45.0501 45.392 46.1328 45.2987 47.2901 45.224C48.4848 45.112 49.5488 45.056 50.4821 45.056H58.9381V52H32.2261Z" fill="black"/>
  </g>
</svg>
