<svg width="16" height="16" viewBox="0 0 16 16" fill="none" xmlns="http://www.w3.org/2000/svg">
  <path d="M2.576 11.726L1.68 11.11L3.038 8.912L0.896 7.96L1.218 6.966L3.486 7.568L3.654 5.076H4.746L4.914 7.568L7.182 6.966L7.504 7.96L5.362 8.912L6.72 11.11L5.824 11.726L4.2 9.738L2.576 11.726ZM7.80653 13V11.824C8.4412 11.292 9.01986 10.7973 9.54253 10.34C10.0652 9.87333 10.5132 9.43933 10.8865 9.038C11.2599 8.63667 11.5492 8.25867 11.7545 7.904C11.9599 7.54933 12.0625 7.21333 12.0625 6.896C12.0625 6.45733 11.9365 6.126 11.6845 5.902C11.4325 5.66867 11.0732 5.552 10.6065 5.552C10.2519 5.552 9.9252 5.64533 9.62653 5.832C9.3372 6.00933 9.06653 6.21933 8.81453 6.462L7.70853 5.356C7.94186 5.12267 8.17053 4.91733 8.39453 4.74C8.62786 4.56267 8.87053 4.418 9.12253 4.306C9.38386 4.18467 9.65453 4.096 9.93453 4.04C10.2239 3.97467 10.5412 3.942 10.8865 3.942C11.3532 3.942 11.7779 4.012 12.1605 4.152C12.5432 4.28267 12.8699 4.474 13.1405 4.726C13.4205 4.96867 13.6352 5.26267 13.7845 5.608C13.9432 5.95333 14.0225 6.34067 14.0225 6.77C14.0225 7.14333 13.9339 7.526 13.7565 7.918C13.5792 8.30067 13.3365 8.688 13.0285 9.08C12.7299 9.46267 12.3845 9.85 11.9925 10.242C11.6005 10.6247 11.1899 11.0027 10.7605 11.376C11.0125 11.348 11.2832 11.3247 11.5725 11.306C11.8712 11.278 12.1372 11.264 12.3705 11.264H14.4845V13H7.80653Z" fill="black"/>
</svg>
