<svg width="16" height="16" viewBox="0 0 16 16" fill="none" xmlns="http://www.w3.org/2000/svg">
  <path d="M5.5 1C4.94772 1 4.5 1.44772 4.5 2V14C4.5 14.5523 4.94772 15 5.5 15H10.5C11.0523 15 11.5 14.5523 11.5 14V2C11.5 1.44772 11.0523 1 10.5 1H9.96825C9.92396 1.17151 9.83449 1.32972 9.70711 1.45711C9.51957 1.64464 9.26522 1.75 9 1.75H7C6.73478 1.75 6.48043 1.64464 6.29289 1.45711C6.16551 1.32972 6.07604 1.17151 6.03175 1H5.5ZM5.5 0H10.5C11.6046 0 12.5 0.89543 12.5 2V14C12.5 15.1046 11.6046 16 10.5 16H5.5C4.39543 16 3.5 15.1046 3.5 14V2C3.5 0.89543 4.39543 0 5.5 0Z M5.27274 11.9318V10.75L8.0341 8.19318C8.26895 7.9659 8.46592 7.76136 8.62501 7.57954C8.78663 7.39772 8.9091 7.21969 8.99244 7.04545C9.07577 6.86868 9.11744 6.67802 9.11744 6.47348C9.11744 6.24621 9.06567 6.0505 8.96213 5.88636C8.8586 5.71969 8.71718 5.59217 8.53789 5.50378C8.3586 5.41287 8.15531 5.36742 7.92804 5.36742C7.69067 5.36742 7.4836 5.4154 7.30683 5.51136C7.13006 5.60732 6.9937 5.74494 6.89774 5.92424C6.80178 6.10353 6.7538 6.31691 6.7538 6.56439H5.19698C5.19698 6.05681 5.31188 5.61616 5.54168 5.24242C5.77148 4.86868 6.09345 4.57954 6.50759 4.37499C6.92173 4.17045 7.399 4.06818 7.93941 4.06818C8.49496 4.06818 8.97855 4.16666 9.39016 4.36363C9.8043 4.55808 10.1263 4.82828 10.3561 5.17424C10.5859 5.5202 10.7008 5.91666 10.7008 6.36363C10.7008 6.65656 10.6427 6.9457 10.5265 7.23106C10.4129 7.51641 10.2096 7.83333 9.91668 8.18181C9.62375 8.52777 9.21087 8.94318 8.67804 9.42802L7.54547 10.5379V10.5909H10.803V11.9318H5.27274Z" fill="#000000"/>
</svg>
