<svg width="441" height="128" viewBox="0 0 441 128" fill="none" xmlns="http://www.w3.org/2000/svg">
  <rect x="369" y="22" width="50" height="82" rx="9" stroke="#E5E7EB" fill="white" stroke-width="2"/>
  <path
    d="M396.952 87.768C394.435 87.768 392.109 87.4053 389.976 86.68C387.843 85.912 385.965 84.824 384.344 83.416C382.765 82.008 381.528 80.28 380.632 78.232C379.736 76.1413 379.288 73.7733 379.288 71.128C379.288 68.4827 379.779 66.136 380.76 64.088C381.784 61.9973 383.128 60.248 384.792 58.84C386.499 57.432 388.461 56.3653 390.68 55.64C392.899 54.872 395.224 54.488 397.656 54.488C400.173 54.488 402.435 54.8933 404.44 55.704C406.488 56.5147 408.195 57.5387 409.56 58.776L405.208 64.6C402.861 62.936 400.515 62.104 398.168 62.104C395.437 62.104 393.219 62.9147 391.512 64.536C389.805 66.1573 388.952 68.3547 388.952 71.128C388.952 73.9013 389.763 76.0987 391.384 77.72C393.048 79.3413 395.203 80.152 397.848 80.152C399.512 80.152 401.027 79.8533 402.392 79.256C403.8 78.6587 405.08 77.9547 406.232 77.144L410.008 83.096C408.088 84.7173 405.976 85.912 403.672 86.68C401.368 87.4053 399.128 87.768 396.952 87.768Z"
    fill="black"/>
  <rect x="305" y="22" width="50" height="82" rx="9" stroke="#E5E7EB" fill="white" stroke-width="2"/>
  <path
    d="M324.336 88.768C322.715 88.768 321.264 88.512 319.984 88C318.704 87.5307 317.616 86.8693 316.72 86.016C315.824 85.12 315.12 84.096 314.608 82.944C314.139 81.792 313.904 80.5333 313.904 79.168C313.904 77.376 314.288 75.8187 315.056 74.496C315.824 73.1307 317.04 71.9787 318.704 71.04C320.411 70.1013 322.587 69.3547 325.232 68.8C327.877 68.2027 331.077 67.7973 334.832 67.584C334.661 66.1333 334.021 65.0027 332.912 64.192C331.845 63.3813 330.224 62.976 328.048 62.976C326.512 62.976 324.955 63.2533 323.376 63.808C321.84 64.32 320.176 65.024 318.384 65.92L315.056 59.776C317.232 58.5387 319.557 57.5147 322.032 56.704C324.549 55.8933 327.173 55.488 329.904 55.488C334.341 55.488 337.84 56.6613 340.4 59.008C342.96 61.3547 344.24 64.96 344.24 69.824V88H336.56L335.856 84.416H335.6C333.979 85.6533 332.208 86.6987 330.288 87.552C328.368 88.3627 326.384 88.768 324.336 88.768ZM327.344 81.472C328.752 81.472 330.075 81.1947 331.312 80.64C332.549 80.0427 333.723 79.3173 334.832 78.464V73.216C332.485 73.344 330.544 73.5573 329.008 73.856C327.472 74.1547 326.256 74.5387 325.36 75.008C324.464 75.4347 323.824 75.9467 323.44 76.544C323.099 77.1413 322.928 77.7813 322.928 78.464C322.928 79.488 323.312 80.256 324.08 80.768C324.891 81.2373 325.979 81.472 327.344 81.472Z"
    fill="black"/>
  <rect x="241" y="22" width="50" height="82" rx="9" stroke="#E5E7EB" fill="white" stroke-width="2"/>
  <path
    d="M259.632 88V63.616H251.248V56.64L259.632 56.256V55.424C259.632 53.5893 259.909 51.8827 260.464 50.304C261.019 48.7253 261.872 47.36 263.024 46.208C264.176 45.0133 265.648 44.0747 267.44 43.392C269.232 42.7093 271.365 42.368 273.84 42.368C275.675 42.368 277.381 42.5387 278.96 42.88C280.581 43.2213 282.075 43.6267 283.44 44.096L281.648 51.008C279.557 50.1973 277.339 49.792 274.992 49.792C272.944 49.792 271.429 50.24 270.448 51.136C269.509 52.032 269.04 53.44 269.04 55.36V56.256H279.984V63.616H269.04V88H259.632Z"
    fill="black"/>
  <rect x="150" y="24" width="50" height="82" rx="9" stroke="#E5E7EB" fill="white" stroke-width="2"/>
  <path
    d="M159.712 87V81.624C162.613 79.192 165.259 76.9307 167.648 74.84C170.037 72.7067 172.085 70.7227 173.792 68.888C175.499 67.0533 176.821 65.3253 177.76 63.704C178.699 62.0827 179.168 60.5467 179.168 59.096C179.168 57.0907 178.592 55.576 177.44 54.552C176.288 53.4853 174.645 52.952 172.512 52.952C170.891 52.952 169.397 53.3787 168.032 54.232C166.709 55.0427 165.472 56.0027 164.32 57.112L159.264 52.056C160.331 50.9893 161.376 50.0507 162.4 49.24C163.467 48.4293 164.576 47.768 165.728 47.256C166.923 46.7013 168.16 46.296 169.44 46.04C170.763 45.7413 172.213 45.592 173.792 45.592C175.925 45.592 177.867 45.912 179.616 46.552C181.365 47.1493 182.859 48.024 184.096 49.176C185.376 50.2853 186.357 51.6293 187.04 53.208C187.765 54.7867 188.128 56.5573 188.128 58.52C188.128 60.2267 187.723 61.976 186.912 63.768C186.101 65.5173 184.992 67.288 183.584 69.08C182.219 70.8293 180.64 72.6 178.848 74.392C177.056 76.1413 175.179 77.8693 173.216 79.576C174.368 79.448 175.605 79.3413 176.928 79.256C178.293 79.128 179.509 79.064 180.576 79.064H190.24V87H159.712Z"
    fill="black"/>
  <rect x="86" y="24" width="50" height="82" rx="9" stroke="#E5E7EB" fill="white" stroke-width="2"/>
  <path
    d="M103.776 81.176L99.68 78.36L105.888 68.312L96.096 63.96L97.568 59.416L107.936 62.168L108.704 50.776H113.696L114.464 62.168L124.832 59.416L126.304 63.96L116.512 68.312L122.72 78.36L118.624 81.176L111.2 72.088L103.776 81.176Z"
    fill="#4B5563"/>
  <rect x="22" y="24" width="50" height="82" rx="9" stroke="#E5E7EB" fill="white" stroke-width="2"/>
  <path
    d="M38.776 81.176L34.68 78.36L40.888 68.312L31.096 63.96L32.568 59.416L42.936 62.168L43.704 50.776H48.696L49.464 62.168L59.832 59.416L61.304 63.96L51.512 68.312L57.72 78.36L53.624 81.176L46.2 72.088L38.776 81.176Z"
    fill="#4B5563"/>
</svg>
