<svg width="512" height="512" viewBox="0 0 512 512" fill="none" xmlns="http://www.w3.org/2000/svg">
  <path
    d="M285.5 308.514C281.727 304.494 277.156 301.304 272.08 299.15C267.004 296.996 261.534 295.925 256.02 296.004C244.42 296.004 233.93 300.414 226.48 308.434C219.03 316.454 215.28 327.554 216.14 339.434C217.85 362.914 235.74 382.004 256.02 382.004C276.3 382.004 294.16 362.914 295.89 339.454C296.77 327.674 293.07 316.684 285.5 308.514ZM323.71 472.004H188.33C186.568 472.032 184.821 471.673 183.212 470.953C181.604 470.232 180.173 469.168 179.02 467.834C177.771 466.337 176.874 464.579 176.396 462.689C175.919 460.798 175.872 458.825 176.26 456.914C179.51 439.354 189.64 424.604 205.56 414.254C219.7 405.064 237.62 400.004 256.02 400.004C274.42 400.004 292.34 405.064 306.48 414.254C322.4 424.604 332.53 439.354 335.78 456.914C336.169 458.825 336.122 460.798 335.644 462.689C335.167 464.579 334.27 466.337 333.02 467.834C331.868 469.168 330.437 470.232 328.828 470.953C327.22 471.673 325.473 472.032 323.71 472.004V472.004Z"
    fill="currentColor"/>
  <path
    d="M336 16H176C149.49 16 128 37.4903 128 64V448C128 474.51 149.49 496 176 496H336C362.51 496 384 474.51 384 448V64C384 37.4903 362.51 16 336 16Z"
    stroke="currentColor"
    stroke-width="32"
    stroke-linecap="round"
    stroke-linejoin="round"/>
  <path
    d="M176 16H200C202.122 16 204.157 16.8429 205.657 18.3431C207.157 19.8434 208 21.8783 208 24C208 28.2435 209.686 32.3131 212.686 35.3137C215.687 38.3143 219.757 40 224 40H288C292.243 40 296.313 38.3143 299.314 35.3137C302.314 32.3131 304 28.2435 304 24C304 21.8783 304.843 19.8434 306.343 18.3431C307.843 16.8429 309.878 16 312 16H336"
    stroke="currentColor"
    stroke-width="32"
    stroke-linecap="round"
    stroke-linejoin="round"/>
</svg>
